<svg width="20" height="20" viewBox="0 0 20 20" fill="none" xmlns="http://www.w3.org/2000/svg">
<path d="M6.25 17.5C5.91848 17.5 5.60054 17.3683 5.36612 17.1339C5.1317 16.8995 5 16.5815 5 16.25V3.75C5 3.41848 5.1317 3.10054 5.36612 2.86612C5.60054 2.6317 5.91848 2.5 6.25 2.5H10V5.625C10 6.12228 10.1975 6.59919 10.5492 6.95083C10.9008 7.30246 11.3777 7.5 11.875 7.5H15V7.53125C15.43 7.57125 15.8467 7.64958 16.25 7.76625V6.7675C16.25 6.27 16.0525 5.79375 15.7012 5.44125L12.0588 1.79875C11.8846 1.62467 11.6778 1.4866 11.4502 1.39245C11.2227 1.29829 10.9788 1.24989 10.7325 1.25H6.25C5.58696 1.25 4.95107 1.51339 4.48223 1.98223C4.01339 2.45107 3.75 3.08696 3.75 3.75V16.25C3.75 16.913 4.01339 17.5489 4.48223 18.0178C4.95107 18.4866 5.58696 18.75 6.25 18.75H9.07625C8.75995 18.3637 8.48589 17.9446 8.25875 17.5H6.25ZM11.25 2.75875L14.7413 6.25H11.875C11.7092 6.25 11.5503 6.18415 11.4331 6.06694C11.3158 5.94973 11.25 5.79076 11.25 5.625V2.75875ZM14.375 8.75C12.8832 8.75 11.4524 9.34263 10.3975 10.3975C9.34263 11.4524 8.75 12.8832 8.75 14.375C8.75 15.8668 9.34263 17.2976 10.3975 18.3525C11.4524 19.4074 12.8832 20 14.375 20C15.8668 20 17.2976 19.4074 18.3525 18.3525C19.4074 17.2976 20 15.8668 20 14.375C20 12.8832 19.4074 11.4524 18.3525 10.3975C17.2976 9.34263 15.8668 8.75 14.375 8.75ZM17.5 15H15V17.5C15 17.6658 14.9342 17.8247 14.8169 17.9419C14.6997 18.0592 14.5408 18.125 14.375 18.125C14.2092 18.125 14.0503 18.0592 13.9331 17.9419C13.8158 17.8247 13.75 17.6658 13.75 17.5V15H11.25C11.0842 15 10.9253 14.9342 10.8081 14.8169C10.6908 14.6997 10.625 14.5408 10.625 14.375C10.625 14.2092 10.6908 14.0503 10.8081 13.9331C10.9253 13.8158 11.0842 13.75 11.25 13.75H13.75V11.25C13.75 11.0842 13.8158 10.9253 13.9331 10.8081C14.0503 10.6908 14.2092 10.625 14.375 10.625C14.5408 10.625 14.6997 10.6908 14.8169 10.8081C14.9342 10.9253 15 11.0842 15 11.25V13.75H17.5C17.6658 13.75 17.8247 13.8158 17.9419 13.9331C18.0592 14.0503 18.125 14.2092 18.125 14.375C18.125 14.5408 18.0592 14.6997 17.9419 14.8169C17.8247 14.9342 17.6658 15 17.5 15Z" fill="black"/>
</svg>
