<svg width="23" height="23" viewBox="0 0 23 23" fill="none" xmlns="http://www.w3.org/2000/svg">
<path d="M20.125 6.70833V18.2083C20.125 18.7354 19.9375 19.1868 19.5625 19.5625C19.1874 19.9381 18.7361 20.1256 18.2083 20.125H4.79167C4.26458 20.125 3.81353 19.9375 3.4385 19.5625C3.06347 19.1874 2.87564 18.7361 2.875 18.2083V4.79167C2.875 4.26458 3.06283 3.81353 3.4385 3.4385C3.81417 3.06347 4.26522 2.87564 4.79167 2.875H16.2917L20.125 6.70833ZM18.2083 7.52292L15.4771 4.79167H4.79167V18.2083H18.2083V7.52292ZM13.5365 16.4115C14.0955 15.8524 14.375 15.1736 14.375 14.375C14.375 13.5764 14.0955 12.8976 13.5365 12.3385C12.9774 11.7795 12.2986 11.5 11.5 11.5C10.7014 11.5 10.0226 11.7795 9.46354 12.3385C8.90451 12.8976 8.625 13.5764 8.625 14.375C8.625 15.1736 8.90451 15.8524 9.46354 16.4115C10.0226 16.9705 10.7014 17.25 11.5 17.25C12.2986 17.25 12.9774 16.9705 13.5365 16.4115ZM5.75 9.58333H14.375V5.75H5.75V9.58333ZM4.79167 7.52292V18.2083V4.79167V7.52292Z" fill="black"/>
</svg>
