<svg width="18" height="20" viewBox="0 0 18 20" fill="none" xmlns="http://www.w3.org/2000/svg">
<path d="M1.89474 18C1.37368 18 0.927789 17.8043 0.557052 17.413C0.186316 17.0217 0.000631579 16.5507 0 16V2C0 1.45 0.185684 0.979333 0.557052 0.588C0.928421 0.196667 1.37432 0.000666667 1.89474 0H13.2632L17.0526 4V9.3C16.7526 9.16667 16.4409 9.07933 16.1176 9.038C15.7942 8.99667 15.4743 9.00067 15.1579 9.05V4.825L12.4816 2H1.89474V16H7.57894V18H1.89474ZM9.47368 20V16.925L14.7079 11.425C14.85 11.275 15.0079 11.1667 15.1816 11.1C15.3553 11.0333 15.5289 11 15.7026 11C15.8921 11 16.0737 11.0377 16.2474 11.113C16.421 11.1883 16.5789 11.3007 16.721 11.45L17.5974 12.375C17.7237 12.525 17.8225 12.6917 17.8939 12.875C17.9653 13.0583 18.0006 13.2417 18 13.425C17.9994 13.6083 17.9678 13.796 17.9053 13.988C17.8427 14.18 17.7401 14.3507 17.5974 14.5L12.3868 20H9.47368ZM10.8947 18.5H11.7947L14.6605 15.45L14.2342 14.975L13.7842 14.525L10.8947 17.55V18.5ZM14.2342 14.975L13.7842 14.525L14.6605 15.45L14.2342 14.975ZM2.8421 7H11.3684V3H2.8421V7ZM8.52631 15H8.62105L11.3684 12.125V12C11.3684 11.1667 11.0921 10.4583 10.5395 9.875C9.98684 9.29167 9.31579 9 8.52631 9C7.73684 9 7.06579 9.29167 6.51315 9.875C5.96052 10.4583 5.68421 11.1667 5.68421 12C5.68421 12.8333 5.96052 13.5417 6.51315 14.125C7.06579 14.7083 7.73684 15 8.52631 15Z" fill="black"/>
</svg>
