<svg width="24" height="24" viewBox="0 0 24 24" fill="none" xmlns="http://www.w3.org/2000/svg">
<path d="M14.75 20L16.75 22H6C5.45 22 4.97933 21.8043 4.588 21.413C4.19667 21.0217 4.00067 20.5507 4 20V4C4 3.45 4.196 2.97933 4.588 2.588C4.98 2.19667 5.45067 2.00067 6 2H15L20 8V20C20 20.3333 19.929 20.6377 19.787 20.913C19.645 21.1883 19.4493 21.4173 19.2 21.6L14 16.45C13.7167 16.6333 13.4083 16.771 13.075 16.863C12.7417 16.955 12.3833 17.0007 12 17C10.9 17 9.95833 16.6083 9.175 15.825C8.39167 15.0417 8 14.1 8 13C8 11.9 8.39167 10.9583 9.175 10.175C9.95833 9.39167 10.9 9 12 9C13.1 9 14.0417 9.39167 14.825 10.175C15.6083 10.9583 16 11.9 16 13C16 13.3833 15.9543 13.7417 15.863 14.075C15.7717 14.4083 15.634 14.7167 15.45 15L18 17.6V8.7L14.05 4H6V20H14.75ZM13.412 14.413C13.804 14.021 14 13.55 14 13C14 12.45 13.8043 11.9793 13.413 11.588C13.0217 11.1967 12.5507 11.0007 12 11C11.4493 10.9993 10.9787 11.1953 10.588 11.588C10.1973 11.9807 10.0013 12.4513 10 13C9.99867 13.5487 10.1947 14.0197 10.588 14.413C10.9813 14.8063 11.452 15.002 12 15C12.548 14.998 13.019 14.8023 13.413 14.413" fill="black"/>
</svg>
