<svg width="25" height="25" viewBox="0 0 25 25" fill="none" xmlns="http://www.w3.org/2000/svg">
<path d="M23.4375 15.1562L22.3438 14.0625L19.5312 16.875L16.7187 14.0625L15.625 15.1562L18.4375 17.9688L15.625 20.7813L16.7187 21.875L19.5312 19.0625L22.3438 21.875L23.4375 20.7813L20.625 17.9688L23.4375 15.1562Z" fill="black"/>
<path d="M12.5 20.3125H9.375V14.0625H12.5V12.5H9.375C8.51562 12.5 7.8125 13.2031 7.8125 14.0625V20.3125H4.6875V4.6875H7.8125V7.8125C7.8125 8.67188 8.51562 9.375 9.375 9.375H15.625C16.4844 9.375 17.1875 8.67188 17.1875 7.8125V5L20.3125 8.125V12.5H21.875V7.8125C21.875 7.57812 21.7969 7.42188 21.6406 7.26562L17.7344 3.35938C17.5781 3.20313 17.4219 3.125 17.1875 3.125H4.6875C3.82812 3.125 3.125 3.82812 3.125 4.6875V20.3125C3.125 21.1719 3.82812 21.875 4.6875 21.875H12.5V20.3125ZM9.375 4.6875H15.625V7.8125H9.375V4.6875Z" fill="black"/>
</svg>
